<svg width="789" height="651" xmlns="http://www.w3.org/2000/svg">
 <!-- Created with Method Draw - http://github.com/duopixel/Method-Draw/ -->
 <g>
  <title>background</title>
  <rect fill="none" id="canvas_background" height="653" width="791" y="-1" x="-1"/>
  <g display="none" overflow="visible" y="0" x="0" height="100%" width="100%" id="canvasGrid">
   <rect fill="url(#gridpattern)" stroke-width="0" y="0" x="0" height="100%" width="100%"/>
  </g>
 </g>
 <g>
  <title>Layer 1</title>
  <g id="svg_43">
   <line stroke="#ffffff" stroke-linecap="undefined" stroke-linejoin="undefined" id="svg_1" y2="537.582173" x2="388.51047" y1="122.806115" x1="388.51047" stroke-width="29" fill="none"/>
   <line stroke="#ffffff" stroke-linecap="undefined" stroke-linejoin="undefined" id="svg_7" y2="123.436255" x2="612.001969" y1="123.436255" x1="569.415775" fill-opacity="null" fill="none"/>
   <line stroke="#ffffff" transform="rotate(-0.17732997238636017 483.03408813479507,207.24829101561548) " stroke-linecap="undefined" stroke-linejoin="undefined" id="svg_8" y2="290.915913" x2="396.004809" y1="123.580635" x1="570.06338" fill-opacity="null" fill="none"/>
   <line stroke="#ffffff" transform="rotate(-0.17732997238636017 506.03222656250585,225.66458129884074) " stroke-linecap="undefined" stroke-linejoin="undefined" id="svg_9" y2="327.51464" x2="400.089986" y1="123.814509" x1="611.974497" fill-opacity="null" fill="none"/>
   <line stroke-linecap="undefined" stroke-linejoin="undefined" id="svg_11" y2="335.161057" x2="400.355504" y1="283.794176" x1="400.355504" stroke="#ffffff" fill="none"/>
   <path id="svg_12" d="m448.488284,268.856416" opacity="0.5" stroke="#ffffff" fill="none"/>
   <line transform="rotate(90 299.6459350585938,207.24829101562503) " stroke="#ffffff" stroke-linecap="undefined" stroke-linejoin="undefined" id="svg_20" y2="290.915913" x2="212.616648" y1="123.580635" x1="386.675219" fill-opacity="null" fill="none"/>
   <line stroke="#ffffff" transform="rotate(90 278.5547485351563,226.03771972656253) " stroke-linecap="undefined" stroke-linejoin="undefined" id="svg_23" y2="327.529052" x2="172.98563" y1="124.546366" x1="384.12387" fill-opacity="null" fill="none"/>
   <line stroke="#ffffff" stroke-linecap="undefined" stroke-linejoin="undefined" id="svg_24" y2="120.386199" x2="176.710759" y1="120.386199" x1="216.40348" fill-opacity="null" stroke-opacity="null" stroke-width="null" fill="none"/>
   <line stroke="#ffffff" stroke-width="29" transform="rotate(-0.17732997238636017 485.2881469726438,225.1433715820188) " stroke-linecap="undefined" stroke-linejoin="undefined" id="svg_26" y2="316.399381" x2="390.36559" y1="133.887345" x1="580.210699" fill-opacity="null" fill="none"/>
   <path stroke="#ffffff" id="svg_27" d="m588.090943,129.675564l1.774334,3.010064l1.774334,-3.010064l-3.548667,0z" fill-opacity="null" stroke-width="12" fill="none"/>
   <path stroke="#ffffff" id="svg_28" d="m579.530644,129.67556l1.77433,3.01007l1.77434,-3.01007l-3.54867,0z" fill-opacity="null" stroke-width="12" fill="none"/>
   <path stroke="#ffffff" id="svg_29" d="m585.626616,131.102277l1.77433,3.01007l1.77434,-3.01007l-3.54867,0z" fill-opacity="null" stroke-width="12" fill="none"/>
   <path stroke="#ffffff" transform="rotate(-121.29774475097656 596.722412109375,131.5913848876953) " id="svg_30" d="m602.163635,119.451686l-5.441216,24.279399l-5.441246,-24.279399l10.882462,0z" fill-opacity="null" stroke-width="3" fill="none"/>
   <path stroke="#ffffff" transform="rotate(-121.29774475097656 594.3916625976564,131.03645324707028) " id="svg_31" d="m599.832893,118.896752l-5.44122,24.27939l-5.44124,-24.27939l10.88246,0z" fill-opacity="null" stroke-width="3" fill="none"/>
   <path stroke="#ffffff" transform="rotate(-121.29774475097656 592.6158447265625,130.9254608154297) " id="svg_32" d="m598.057089,118.785764l-5.44122,24.27939l-5.44124,-24.27939l10.88246,0z" fill-opacity="null" stroke-width="3" fill="none"/>
   <path stroke="#ffffff" transform="rotate(-112.36693572998047 592.8219604492189,131.24871826171878) " id="svg_33" d="m603.750913,117.364162l-10.928924,27.769106l-10.928964,-27.769106l21.857888,0z" fill-opacity="null" stroke-width="6" fill="none"/>
   <path stroke="#ffffff" transform="rotate(112 195.20159912109375,127.71766662597656) " id="svg_34" d="m205.393225,114.769841l-10.191602,25.895647l-10.19163,-25.895647l20.383232,0z" fill-opacity="null" stroke-width="6" fill="none"/>
   <line transform="rotate(90 297.22225952148443,224.88867187500003) " stroke="#ffffff" stroke-width="29" stroke-linecap="undefined" stroke-linejoin="undefined" id="svg_35" y2="316.144696" x2="202.299707" y1="133.632661" x1="392.144815" fill-opacity="null" fill="none"/>
   <line stroke-linecap="undefined" stroke-linejoin="undefined" id="svg_37" y2="134.278176" x2="205.794603" y1="124.382343" x1="194.857103" fill-opacity="null" stroke-width="7" stroke="#ffffff" fill="none"/>
   <line stroke-linecap="undefined" stroke-linejoin="undefined" id="svg_38" y2="129.382343" x2="197.044603" y1="129.382343" x1="201.732103" fill-opacity="null" stroke-width="7" stroke="#ffffff" fill="none"/>
   <line stroke-linecap="undefined" stroke-linejoin="undefined" id="svg_39" y2="125.528176" x2="190.89877" y1="130.111509" x1="211.002936" fill-opacity="null" stroke-width="7" stroke="#ffffff" fill="none"/>
   <line stroke-linecap="undefined" stroke-linejoin="undefined" id="svg_40" y2="126.778176" x2="194.857103" y1="141.361509" x1="211.52377" fill-opacity="null" stroke-width="7" stroke="#ffffff" fill="none"/>
   <line stroke-linecap="undefined" stroke-linejoin="undefined" id="svg_41" y2="130.215676" x2="192.565436" y1="139.590676" x1="199.752936" fill-opacity="null" stroke-width="7" stroke="#ffffff" fill="none"/>
   <line stroke-linecap="undefined" stroke-linejoin="undefined" id="svg_42" y2="122.715676" x2="212.982103" y1="125.944843" x1="217.46127" fill-opacity="null" stroke-width="7" stroke="#ffffff" fill="none"/>
  </g>
 </g>
</svg>